<?xml version="1.0" standalone="no"?><!DOCTYPE svg PUBLIC "-//W3C//DTD SVG 1.1//EN" "http://www.w3.org/Graphics/SVG/1.1/DTD/svg11.dtd"><svg t="1753167572697" class="icon" viewBox="0 0 1024 1024" version="1.1" xmlns="http://www.w3.org/2000/svg" p-id="10204" xmlns:xlink="http://www.w3.org/1999/xlink" width="200" height="200"><path d="M512 563.2L115.873684 266.778947a26.947368 26.947368 0 1 1 32.336842-43.115789L512 495.831579 875.789474 223.663158a26.947368 26.947368 0 1 1 32.336842 43.115789z" fill="#83D2EA" p-id="10205"></path><path d="M854.231579 859.621053H169.768421a79.386947 79.386947 0 0 1-80.842105-80.842106V280.252632a79.386947 79.386947 0 0 1 80.842105-80.842106h684.463158a79.386947 79.386947 0 0 1 80.842105 80.842106v495.831579a83.536842 83.536842 0 0 1-80.842105 83.536842zM169.768421 253.305263a25.465263 25.465263 0 0 0-26.947368 26.947369v495.831579a25.465263 25.465263 0 0 0 26.947368 26.947368h684.463158a25.465263 25.465263 0 0 0 26.947368-26.947368V280.252632a25.465263 25.465263 0 0 0-26.947368-26.947369z" fill="#208BB5" p-id="10206"></path></svg>